<svg id="Layer_1" xmlns="http://www.w3.org/2000/svg" viewBox="46.1 0 420.6 512"><style>.st0{fill:#6e7e81}</style><path class="st0" d="M303.3 256.9c-8.1 0-14.7 6.7-14.7 14.9 0 8.3 6.5 14.9 14.7 14.9s14.9-6.6 14.7-14.9c0-8.3-6.5-14.9-14.7-14.9z"/><path class="st0" d="M451.7 252.2c0-8.4 6.6-15.2 15-15.2-.5-8.6-1.7-17-3.1-25.2-8 2.3-16.3-2.6-18.5-10.8-2.1-8.2 2.6-16.4 10.7-18.7-2.8-8-5.9-15.9-9.6-23.4-7.2 4.2-16.4 1.7-20.6-5.6s-1.7-16.6 5.6-20.8c-4.7-7-9.8-13.6-15.2-20.1-5.9 5.9-15.4 5.9-21.3 0s-5.9-15.6 0-21.7c-6.3-5.6-12.9-10.7-19.9-15.4-4.2 7.3-13.5 9.8-20.6 5.6-7.2-4.2-9.6-13.5-5.6-20.8-7.5-3.7-15.2-7-23.1-9.8-2.1 8.2-10.5 12.9-18.5 10.8-8-2.1-12.8-10.5-10.7-18.7-8-1.6-16.4-2.6-24.8-3.3 0 8.4-6.8 15.2-15 15.2-8.4 0-15-6.8-15-15.2-8.4.7-16.8 1.7-24.8 3.3 2.1 8.2-2.6 16.6-10.7 18.7-8 2.3-16.3-2.6-18.5-10.8-8 2.8-15.7 6.1-23.3 9.8 4.2 7.3 1.7 16.6-5.4 20.8-7.2 4.2-16.4 1.7-20.6-5.6-7 4.7-13.6 10-19.9 15.4 5.9 5.9 5.9 15.6 0 21.5s-15.4 5.9-21.3 0c-5.4 6.5-10.7 13.1-15.2 20.1 7.2 4.2 9.6 13.6 5.6 20.8-4.2 7.3-13.5 9.8-20.6 5.6-3.7 7.5-6.8 15.4-9.6 23.4 8 2.3 12.8 10.5 10.7 18.7-2.1 8.2-10.5 12.9-18.5 10.8-1.6 8.2-2.6 16.6-3.3 25.2 8.4 0 15 6.8 15 15.2 0 8.4-6.8 15.2-15 15.2.5 8.6 1.7 17 3.3 25.2 8-2.1 16.3 2.6 18.5 10.8 2.1 8.2-2.6 16.6-10.7 18.7 2.8 8 5.9 15.9 9.6 23.4 7.2-4.2 16.4-1.7 20.6 5.6 4.2 7.3 1.7 16.6-5.6 20.8 4.7 7 9.8 13.8 15.2 20.1 5.9-5.9 15.4-5.9 21.3 0s5.9 15.6 0 21.5c6.3 5.6 12.9 10.7 19.9 15.4 4.2-7.3 13.5-9.8 20.6-5.6 7.2 4.2 9.6 13.6 5.4 20.8 7.5 3.7 15.2 7 23.3 9.8 2.1-8.2 10.5-12.9 18.5-10.8 8 2.1 12.8 10.5 10.7 18.7 8.2 1.6 16.4 2.6 24.8 3.3 0-8.4 6.8-15.2 15-15.2 8.4 0 15 6.8 15 15.2 8.4-.5 16.8-1.7 24.8-3.3-2.1-8.2 2.6-16.4 10.7-18.7 8-2.3 16.3 2.6 18.5 10.8 7.9-2.8 15.7-6.1 23.1-9.8-4.2-7.3-1.7-16.6 5.6-20.8 7.2-4.2 16.4-1.7 20.6 5.6 7-4.7 13.6-10 19.9-15.4-5.9-5.9-5.9-15.6 0-21.5s15.4-5.9 21.3 0c5.4-6.5 10.7-13.1 15.2-20.1-7.2-4.2-9.6-13.5-5.6-20.8 4.2-7.3 13.5-9.8 20.6-5.6 3.7-7.5 6.8-15.4 9.6-23.4-8-2.1-12.8-10.5-10.7-18.7s10.5-12.9 18.5-10.8c1.6-8.2 2.6-16.6 3.1-25.2-8.2.4-15-6.6-15-15zm-209.6-42.5h-33.6v-37.4c0-1.2-.2-2.6-.5-4.2s-.8-3-1.7-4.4c-.9-1.2-1.9-2.4-3.3-3.3-1.4-.9-3.1-1.4-5.4-1.4h-.5c-2.3 0-4 .5-5.4 1.4-1.4.9-2.4 1.9-3.3 3.3-.8 1.4-1.4 2.8-1.7 4.4-.3 1.8-.5 3-.5 4.2v162.1c0 2.4.7 4.7 1.7 6.8 1.2 2.3 3.8 3.3 8 3.3 3.3 0 5.9-.9 8-2.6 2.1-1.7 3.1-4 3.1-6.8v-46.9h-11.4v-29.7h45v74.9c0 14.3-3.9 25.2-11.4 32.7-7.7 7.5-18.4 11.2-32.2 11.2-15.5 0-26.7-3.7-33.9-11-7.2-7.4-10.7-18.4-10.7-33.1V172.6c0-13.8 3.8-24.8 11.5-33.2 7.7-8.2 18.7-12.4 33.2-12.4 14.6 0 25.6 4.2 33.5 12.1 7.7 8.2 11.5 19.4 11.5 33.2v37.4zM321 375.9l-7.7-60.2H293l-7.7 60.2h-35.5l32.7-247.3h41.1l32.7 247.3H321z"/></svg>